<svg xmlns="http://www.w3.org/2000/svg" viewBox="0 0 142.32 92.92" height="24"><defs><style>.a{fill:#d1c7fe;}.b{fill:#d84315;}.c{fill:#e57373;}</style></defs><path class="a" d="M137.62,37.22a13.41,13.41,0,1,1-14-13A13.57,13.57,0,0,1,137.72,37c-.1.1-.1.1-.1.2"/><path class="b" d="M73.52,66.32c29.6,0,55.4,10.7,68.8,26.6a72.84,72.84,0,0,0-137.5,0c13.3-15.9,39.1-26.6,68.7-26.6"/><path class="a" d="M10.42,60.12a9.91,9.91,0,1,1,9.4-10.4h0v.1a9.84,9.84,0,0,1-9.4,10.3Z"/><path class="c" d="M69.82,16.92a16.85,16.85,0,1,1,0-.2v.2"/></svg>