<svg id="Layer_1" data-name="Layer 1" xmlns="http://www.w3.org/2000/svg" viewBox="0 0 393.84 96"><defs><style>.cls-1{fill:#263238;}.cls-2{fill:#d1c7fe;}.cls-3{fill:#d84315;}.cls-4{fill:#e57373;}</style></defs><title>amalthea</title><path class="cls-1" d="M122.88,56.79L118,71.46H111.8l15.85-46.65h7.27l15.92,46.65H144.4l-5-14.67H122.88Zm15.3-4.71-4.57-13.43c-1-3-1.73-5.81-2.42-8.51H131c-0.69,2.77-1.45,5.61-2.35,8.44l-4.57,13.5h14.05Z"/><path class="cls-1" d="M157.28,47c0-3.46-.07-6.3-0.28-9.07h5.33l0.28,5.4h0.21a11.55,11.55,0,0,1,10.52-6.16,9.9,9.9,0,0,1,9.48,6.71H183a13.8,13.8,0,0,1,3.74-4.36,11.43,11.43,0,0,1,7.41-2.35c4.43,0,11,2.91,11,14.54V71.46h-6v-19c0-6.44-2.35-10.31-7.27-10.31a7.89,7.89,0,0,0-7.2,5.54,10,10,0,0,0-.48,3v20.7h-6V51.39c0-5.33-2.35-9.21-7-9.21-3.81,0-6.58,3-7.54,6.09a8.4,8.4,0,0,0-.48,3V71.46h-6V47Z"/><path class="cls-1" d="M233.56,71.46l-0.48-4.22h-0.21a12.48,12.48,0,0,1-10.24,5c-6.78,0-10.24-4.78-10.24-9.62,0-8.1,7.2-12.53,20.14-12.46V49.45c0-2.77-.76-7.75-7.61-7.75a16.69,16.69,0,0,0-8.72,2.49l-1.38-4a20.79,20.79,0,0,1,11-3c10.24,0,12.74,7,12.74,13.71V63.43a47.17,47.17,0,0,0,.55,8h-5.54Zm-0.9-17.1c-6.65-.14-14.19,1-14.19,7.54,0,3.95,2.63,5.81,5.75,5.81a8.34,8.34,0,0,0,8.1-5.61,6.36,6.36,0,0,0,.35-1.94V54.37Z"/><path class="cls-1" d="M248.37,22.32h6.09V71.46h-6.09V22.32Z"/><path class="cls-1" d="M272,28.34V38h8.72V42.6H272V60.67c0,4.15,1.18,6.51,4.57,6.51a13.55,13.55,0,0,0,3.53-.42l0.28,4.57a14.91,14.91,0,0,1-5.4.83,8.44,8.44,0,0,1-6.58-2.56c-1.73-1.8-2.35-4.78-2.35-8.72V42.6H260.9V38h5.19v-8Z"/><path class="cls-1" d="M287.62,22.32h6.09v20.9h0.14a11.3,11.3,0,0,1,4.36-4.29,12.54,12.54,0,0,1,6.23-1.73c4.5,0,11.7,2.77,11.7,14.33V71.46H310V52.22c0-5.4-2-10-7.75-10a8.75,8.75,0,0,0-8.17,6.09,7.37,7.37,0,0,0-.42,2.91V71.46h-6.09V22.32Z"/><path class="cls-1" d="M329.43,55.82c0.14,8.24,5.4,11.63,11.49,11.63a22,22,0,0,0,9.28-1.73l1,4.36a27.14,27.14,0,0,1-11.14,2.08c-10.31,0-16.47-6.78-16.47-16.89s6-18.07,15.71-18.07c10.94,0,13.84,9.62,13.84,15.78a23,23,0,0,1-.21,2.84H329.43Zm17.86-4.36c0.07-3.88-1.59-9.9-8.44-9.9-6.16,0-8.86,5.68-9.34,9.9h17.79Z"/><path class="cls-1" d="M379.27,71.46l-0.48-4.22h-0.21a12.48,12.48,0,0,1-10.24,5c-6.78,0-10.24-4.78-10.24-9.62,0-8.1,7.2-12.53,20.14-12.46V49.45c0-2.77-.76-7.75-7.61-7.75a16.69,16.69,0,0,0-8.72,2.49l-1.38-4a20.79,20.79,0,0,1,11-3c10.24,0,12.74,7,12.74,13.71V63.43a47.17,47.17,0,0,0,.55,8h-5.54Zm-0.9-17.1c-6.65-.14-14.19,1-14.19,7.54,0,3.95,2.63,5.81,5.75,5.81a8.34,8.34,0,0,0,8.1-5.61,6.36,6.36,0,0,0,.35-1.94V54.37Z"/><path id="Fill-8" class="cls-2" d="M98.22,35A8.81,8.81,0,1,1,89,26.46,8.81,8.81,0,0,1,98.22,35"/><path id="Fill-10" class="cls-3" d="M56.17,54.06c19.39,0,36.28,7,45.07,17.44a47.74,47.74,0,0,0-90.13,0c8.79-10.41,25.68-17.44,45.07-17.44"/><path id="Fill-12" class="cls-2" d="M14.87,50A6.47,6.47,0,1,1,21,43.21v0.06A6.42,6.42,0,0,1,14.9,50h0Z"/><path id="Fill-8-2" data-name="Fill-8" class="cls-4" d="M53.79,21.7A11.44,11.44,0,1,1,41.86,10.65,11.44,11.44,0,0,1,53.79,21.7"/></svg>